:FULLY-SPECIFIED
:FORCE-ALL-JOINTS-BE-3DOF
:DEGREES
99
root 0.627675 17.7862 16.3289 2.21479 4.23593 3.54259
lfemur 6.80358 0.897167 -24.2085
ltibia 38.4023 -0 0
lfoot 1.42958 -5.95317 0.131179
ltoes -27.4636 0 0
rfemur -38.5337 -6.23548 19.04
rtibia 91.3559 -0 0
rfoot 8.01383 -7.01921 -0.00132846
rtoes 10.7355 -0 0
lowerback 17.2308 -3.33365 -4.54255
upperback 1.17691 -5.39309 -1.41111
thorax -8.02238 -2.45829 2.29749
lowerneck -5.84555 1.17571 -1.43635
upperneck -8.10609 1.67062 0.832063
head -1.54894 0.8563 0.504444
lclavicle -4.30914e-15 2.05582e-14 -3.87504e-31
lhumerus -16.6645 -15.6026 86.4056
lradius 113.986 -0 0
lwrist 29.1953 0 0
lhand -38.2605 6.99333 0.000966422
lfingers 7.12502 -0 0
lthumb -11.2905 36.6694 0.000943783
rclavicle -4.30914e-15 2.05582e-14 -3.87504e-31
rhumerus -55.6313 5.33725 -83.5781
rradius 81.4414 -0 0
rwrist -3.00783 0 0
rhand -44.2156 35.7869 0.00135773
rfingers 7.12502 -0 0
rthumb -17.0287 6.51333 0.00129534
100
root 0.632724 17.7713 16.8766 2.11369 3.82019 3.33359
lfemur 6.42064 1.32797 -23.7042
ltibia 40.806 -0 0
lfoot 2.35475 -5.82888 0.151427
ltoes -26.6268 0 0
rfemur -37.8031 -5.73726 19.3526
rtibia 89.336 -0 0
rfoot 7.24834 -7.01768 -0.0015333
rtoes 10.5707 -0 0
lowerback 17.2586 -3.26526 -4.24736
upperback 1.19338 -5.23689 -1.29012
thorax -8.03263 -2.39153 2.22592
lowerneck -5.87897 1.24818 -1.37245
upperneck -8.12231 1.75486 0.631092
head -1.54535 0.898598 0.431883
lclavicle -4.99206e-15 2.0058e-14 -4.47121e-31
lhumerus -17.822 -15.7777 86.6766
lradius 113.651 -0 0
lwrist 29.1515 0 0
lhand -38.2463 7.05317 0.0011151
lfingers 7.12502 -0 0
lthumb -11.2768 36.73 0.00108898
rclavicle -4.99206e-15 2.0058e-14 -4.47121e-31
rhumerus -54.8684 5.61339 -83.6909
rradius 81.8632 -0 0
rwrist -3.01196 0 0
rhand -44.2042 35.8918 0.00156662
rfingers 7.12502 -0 0
rthumb -17.0177 6.61731 0.00149463
101
root 0.637773 17.7565 17.4243 2.01417 3.40408 3.12541
lfemur 6.04143 1.76212 -23.2027
ltibia 43.2096 -0 0
lfoot 3.27995 -5.70428 0.169666
ltoes -25.7899 0 0
rfemur -37.0704 -5.24305 19.6713
rtibia 87.3162 -0 0
rfoot 6.48285 -7.01616 -0.00171775
rtoes 10.4058 -0 0
lowerback 17.2868 -3.19702 -3.95216
upperback 1.21018 -5.08072 -1.16913
thorax -8.04295 -2.32478 2.15435
lowerneck -5.91231 1.32069 -1.3086
upperneck -8.13882 1.83906 0.430088
head -1.54182 0.940901 0.359324
lclavicle -5.67498e-15 1.95578e-14 -5.00775e-31
lhumerus -18.9814 -15.9475 86.9515
lradius 113.317 -0 0
lwrist 29.1076 0 0
lhand -38.2321 7.11302 0.00124892
lfingers 7.12502 -0 0
lthumb -11.2631 36.7906 0.00121966
rclavicle -5.67498e-15 1.95578e-14 -5.00775e-31
rhumerus -54.1058 5.89101 -83.8001
rradius 82.2849 -0 0
rwrist -3.01609 0 0
rhand -44.1928 35.9967 0.00175462
rfingers 7.12502 -0 0
rthumb -17.0067 6.72129 0.001674
102
root 0.642822 17.7416 17.9719 1.9162 2.98762 2.91805
lfemur 5.66594 2.19957 -22.704
ltibia 45.6132 -0 0
lfoot 4.2052 -5.57941 0.185891
ltoes -24.9531 0 0
rfemur -36.3356 -4.75294 19.9961
rtibia 85.2964 -0 0
rfoot 5.71735 -7.01463 -0.0018818
rtoes 10.2409 -0 0
lowerback 17.3152 -3.12892 -3.65695
upperback 1.2273 -4.92459 -1.04811
thorax -8.05336 -2.25804 2.08276
lowerneck -5.94557 1.39323 -1.24478
upperneck -8.15562 1.92319 0.22905
head -1.53834 0.983209 0.286767
lclavicle -6.3579e-15 1.90577e-14 -5.48468e-31
lhumerus -20.1425 -16.1119 87.2301
lradius 112.983 -0 0
lwrist 29.0637 0 0
lhand -38.2178 7.17286 0.00136787
lfingers 7.12502 -0 0
lthumb -11.2493 36.8511 0.00133582
rclavicle -6.3579e-15 1.90577e-14 -5.48468e-31
rhumerus -53.3433 6.17004 -83.9056
rradius 82.7067 -0 0
rwrist -3.02022 0 0
rhand -44.1814 36.1017 0.00192174
rfingers 7.12502 -0 0
rthumb -16.9958 6.82527 0.00183343
103
root 0.647871 17.7267 18.5196 1.81977 2.5708 2.71147
lfemur 5.29416 2.64025 -22.208
ltibia 48.0169 -0 0
lfoot 5.13048 -5.45428 0.200097
ltoes -24.1162 0 0
rfemur -35.5984 -4.26703 20.327
rtibia 83.2765 -0 0
rfoot 4.95186 -7.0131 -0.0020254
rtoes 10.0761 -0 0
lowerback 17.3441 -3.06096 -3.36172
upperback 1.24475 -4.7685 -0.927075
thorax -8.06386 -2.19132 2.01117
lowerneck -5.97875 1.46582 -1.18101
upperneck -8.17273 2.00726 0.0279778
head -1.53492 1.02552 0.214211
lclavicle -7.04083e-15 1.85575e-14 -5.90199e-31
lhumerus -21.3055 -16.2709 87.5124
lradius 112.648 -0 0
lwrist 29.0199 0 0
lhand -38.2036 7.2327 0.00147195
lfingers 7.12502 -0 0
lthumb -11.2356 36.9117 0.00143746
rclavicle -7.04083e-15 1.85575e-14 -5.90199e-31
rhumerus -52.5808 6.45045 -84.0074
rradius 83.1285 -0 0
rwrist -3.02435 0 0
rhand -44.17 36.2066 0.00206796
rfingers 7.12502 -0 0
rthumb -16.9848 6.92925 0.00197294
104
root 0.65292 17.7119 19.0672 1.72488 2.15364 2.50565
lfemur 4.92606 3.08413 -21.7146
ltibia 50.4205 -0 0
lfoot 6.05579 -5.32895 0.212281
ltoes -23.2794 0 0
rfemur -34.8589 -3.78541 20.6639
rtibia 81.2567 -0 0
rfoot 4.18636 -7.01156 -0.00214854
rtoes 9.91122 -0 0
lowerback 17.3733 -2.99316 -3.06648
upperback 1.26253 -4.61245 -0.806019
thorax -8.07443 -2.12461 1.93957
lowerneck -6.01185 1.53844 -1.11727
upperneck -8.19013 2.09127 -0.173131
head -1.53155 1.06784 0.141657
lclavicle -7.72375e-15 1.80573e-14 -6.25969e-31
lhumerus -22.4701 -16.4243 87.7982
lradius 112.314 -0 0
lwrist 28.976 0 0
lhand -38.1893 7.29254 0.00156116
lfingers 7.12502 -0 0
lthumb -11.2219 36.9723 0.00152458
rclavicle -7.72375e-15 1.80573e-14 -6.25969e-31
rhumerus -51.8185 6.73217 -84.1055
rradius 83.5503 -0 0
rwrist -3.02848 0 0
rhand -44.1585 36.3115 0.0021933
rfingers 7.12502 -0 0
rthumb -16.9738 7.03323 0.00209252
105
root 0.657969 17.697 19.6149 1.63151 1.73615 2.30058
lfemur 4.56164 3.53114 -21.2239
ltibia 52.8242 -0 0
lfoot 6.98112 -5.20343 0.222439
ltoes -22.4425 0 0
rfemur -34.117 -3.30817 21.0068
rtibia 79.2369 -0 0
rfoot 3.42087 -7.01003 -0.00225119
rtoes 9.74636 -0 0
lowerback 17.4028 -2.92551 -2.77122
upperback 1.28063 -4.45643 -0.684941
thorax -8.08509 -2.05791 1.86796
lowerneck -6.04487 1.61109 -1.05357
upperneck -8.20782 2.17523 -0.374275
head -1.52823 1.11016 0.0691045
lclavicle -8.40667e-15 1.75572e-14 -6.55777e-31
lhumerus -23.6365 -16.5721 88.0875
lradius 111.98 -0 0
lwrist 28.9321 0 0
lhand -38.1751 7.35238 0.0016355
lfingers 7.12502 -0 0
lthumb -11.2081 37.0329 0.00159719
rclavicle -8.40667e-15 1.75572e-14 -6.55777e-31
rhumerus -51.0562 7.01517 -84.1999
rradius 83.9721 -0 0
rwrist -3.03261 0 0
rhand -44.1471 36.4164 0.00229775
rfingers 7.12502 -0 0
rthumb -16.9628 7.13721 0.00219217
106
root 0.663018 17.6822 20.1626 1.53965 1.31832 2.09623
lfemur 4.20088 3.98125 -20.7359
ltibia 55.2278 -0 0
lfoot 7.90648 -5.07777 0.230568
ltoes -21.6057 0 0
rfemur -33.3725 -2.83542 21.3557
rtibia 77.2171 -0 0
rfoot 2.65538 -7.0085 -0.00233332
rtoes 9.58151 -0 0
lowerback 17.4327 -2.85801 -2.47594
upperback 1.29907 -4.30045 -0.563839
thorax -8.09583 -1.99122 1.79634
lowerneck -6.07781 1.68379 -0.989917
upperneck -8.22581 2.25911 -0.575458
head -1.52497 1.15248 -0.00344666
lclavicle -9.08959e-15 1.7057e-14 -6.79623e-31
lhumerus -24.8045 -16.7143 88.38
lradius 111.646 -0 0
lwrist 28.8882 0 0
lhand -38.1609 7.41222 0.00169497
lfingers 7.12502 -0 0
lthumb -11.1944 37.0935 0.00165527
rclavicle -9.08959e-15 1.7057e-14 -6.79623e-31
rhumerus -50.2939 7.2994 -84.2906
rradius 84.3938 -0 0
rwrist -3.03673 0 0
rhand -44.1357 36.5213 0.00238131
rfingers 7.12502 -0 0
rthumb -16.9518 7.24119 0.00227189
107
root 0.668067 17.6673 20.7102 1.4493 0.900169 1.89257
lfemur 3.84378 4.43439 -20.2504
ltibia 57.6314 -0 0
lfoot 8.83185 -4.95199 0.236668
ltoes -20.7689 0 0
rfemur -32.6254 -2.36724 21.7106
rtibia 75.1972 -0 0
rfoot 1.88988 -7.00696 -0.00239494
rtoes 9.41665 -0 0
lowerback 17.4629 -2.79067 -2.18064
upperback 1.31782 -4.14451 -0.442711
thorax -8.10666 -1.92455 1.72471
lowerneck -6.11067 1.75652 -0.926299
upperneck -8.2441 2.34294 -0.776678
head -1.52176 1.19481 -0.0759965
lclavicle -9.77251e-15 1.65568e-14 -6.97508e-31
lhumerus -25.9741 -16.8507 88.6757
lradius 111.311 -0 0
lwrist 28.8444 0 0
lhand -38.1466 7.47206 0.00173958
lfingers 7.12502 -0 0
lthumb -11.1807 37.154 0.00169883
rclavicle -9.77251e-15 1.65568e-14 -6.97508e-31
rhumerus -49.5315 7.58479 -84.3774
rradius 84.8156 -0 0
rwrist -3.04086 0 0
rhand -44.1243 36.6263 0.00244398
rfingers 7.12502 -0 0
rthumb -16.9409 7.34517 0.00233168
108
root 0.673116 17.6524 21.2579 1.36044 0.4817 1.6896
lfemur 3.49031 4.89054 -19.7674
ltibia 60.0351 -0 0
lfoot 9.75723 -4.82612 0.240735
ltoes -19.932 0 0
rfemur -31.8757 -1.90373 22.0714
rtibia 73.1774 -0 0
rfoot 1.12439 -7.00542 -0.00243603
rtoes 9.25179 -0 0
lowerback 17.4935 -2.72348 -1.88533
upperback 1.33691 -3.98861 -0.321555
thorax -8.11756 -1.8579 1.65307
lowerneck -6.14345 1.82928 -0.862721
upperneck -8.26268 2.4267 -0.977937
head -1.5186 1.23714 -0.148545
lclavicle -1.04554e-14 1.60567e-14 -7.09431e-31
lhumerus -27.1452 -16.9812 88.9745
lradius 110.977 -0 0
lwrist 28.8005 0 0
lhand -38.1324 7.5319 0.00176931
lfingers 7.12502 -0 0
lthumb -11.1669 37.2146 0.00172787
rclavicle -1.04554e-14 1.60567e-14 -7.09431e-31
rhumerus -48.7691 7.8713 -84.4605
rradius 85.2374 -0 0
rwrist -3.04499 0 0
rhand -44.1129 36.7312 0.00248576
rfingers 7.12502 -0 0
rthumb -16.9299 7.44915 0.00237154
109
root 0.678165 17.6376 21.8056 1.27307 0.0629186 1.48728
lfemur 3.14046 5.34962 -19.2869
ltibia 62.4387 -0 0
lfoot 10.6826 -4.70021 0.242768
ltoes -19.0952 0 0
rfemur -31.1233 -1.44498 22.4383
rtibia 71.1576 -0 0
rfoot 0.358897 -7.00388 -0.00245657
rtoes 9.08693 -0 0
lowerback 17.5244 -2.65645 -1.58999
upperback 1.35632 -3.83276 -0.200369
thorax -8.12855 -1.79125 1.58142
lowerneck -6.17615 1.90209 -0.799182
upperneck -8.28156 2.51039 -1.17924
head -1.5155 1.27948 -0.221093
lclavicle -1.11384e-14 1.55565e-14 -7.15393e-31
lhumerus -28.3179 -17.106 89.2762
lradius 110.643 -0 0
lwrist 28.7566 0 0
lhand -38.1182 7.59174 0.00178418
lfingers 7.12502 -0 0
lthumb -11.1532 37.2752 0.00174239
rclavicle -1.11384e-14 1.55565e-14 -7.15393e-31
rhumerus -48.0065 8.15889 -84.5398
rradius 85.6592 -0 0
rwrist -3.04912 0 0
rhand -44.1015 36.8361 0.00250665
rfingers 7.12502 -0 0
rthumb -16.9189 7.55313 0.00239147
110
root 0.683213 17.6227 22.3532 1.18718 -0.356168 1.28559
lfemur 2.79421 5.81161 -18.8089
ltibia 64.8424 -0 0
lfoot 11.608 -4.57429 0.242768
ltoes -18.2583 0 0
rfemur -30.368 -0.991103 22.811
rtibia 69.1377 -0 0
rfoot -0.406597 -7.00235 -0.00245657
rtoes 8.92208 -0 0
lowerback 17.5556 -2.58958 -1.29464
upperback 1.37606 -3.67694 -0.0791527
thorax -8.13963 -1.72462 1.50976
lowerneck -6.20878 1.97493 -0.735682
upperneck -8.30073 2.59402 -1.38058
head -1.51245 1.32182 -0.293639
lclavicle -1.18213e-14 1.50563e-14 -7.15393e-31
lhumerus -29.4919 -17.2247 89.5807
lradius 110.308 -0 0
lwrist 28.7128 0 0
lhand -38.1039 7.65159 0.00178418
lfingers 7.12502 -0 0
lthumb -11.1395 37.3358 0.00174239
rclavicle -1.18213e-14 1.50563e-14 -7.15393e-31
rhumerus -47.2438 8.44749 -84.6153
rradius 86.0809 -0 0
rwrist -3.05325 0 0
rhand -44.0901 36.941 0.00250665
rfingers 7.12502 -0 0
rthumb -16.9079 7.65711 0.00239147
111
root 0.688262 17.6079 22.9009 1.10275 -0.775553 1.08452
lfemur 2.45156 6.27645 -18.3332
ltibia 67.246 -0 0
lfoot 12.5334 -4.44838 0.240735
ltoes -17.4215 0 0
rfemur -29.6099 -0.542185 23.1897
rtibia 67.1179 -0 0
rfoot -1.17209 -7.00081 -0.00243603
rtoes 8.75722 -0 0
lowerback 17.5872 -2.52287 -0.999264
upperback 1.39612 -3.52116 0.0420971
thorax -8.15078 -1.658 1.43809
lowerneck -6.24132 2.0478 -0.67222
upperneck -8.3202 2.67758 -1.58196
head -1.50945 1.36416 -0.366185
lclavicle -1.25042e-14 1.45562e-14 -7.09431e-31
lhumerus -30.6674 -17.3375 89.8879
lradius 109.974 -0 0
lwrist 28.6689 0 0
lhand -38.0897 7.71143 0.00176931
lfingers 7.12502 -0 0
lthumb -11.1258 37.3964 0.00172787
rclavicle -1.25042e-14 1.45562e-14 -7.09431e-31
rhumerus -46.4809 8.73706 -84.687
rradius 86.5027 -0 0
rwrist -3.05738 0 0
rhand -44.0787 37.0459 0.00248576
rfingers 7.12502 -0 0
rthumb -16.8969 7.76109 0.00237154
